<?xml version="1.0" encoding="UTF-8" standalone="no"?>
<!-- Created with Inkscape (http://www.inkscape.org/) -->

<svg
   width="223.64758mm"
   height="224.21217mm"
   viewBox="0 0 223.64758 224.21217"
   version="1.1"
   id="svg1"
   xml:space="preserve"
   xmlns="http://www.w3.org/2000/svg"
   xmlns:svg="http://www.w3.org/2000/svg"><defs
     id="defs1" /><g
     id="layer1"
     transform="translate(-138.17621,-137.61159)"><circle
       style="fill:#999999;fill-opacity:0;stroke:#ffffff;stroke-width:0.312145;stroke-opacity:1"
       id="path122"
       cx="250"
       cy="250"
       r="111.66772" /><path
       style="fill:#ffffff;fill-opacity:1;stroke-width:0.26453"
       d="m 235.37797,149.80386 c 0.24537,-0.0314 0.42212,-0.24668 0.39247,-0.47841 -0.0298,-0.23172 -0.13782,-0.41104 -0.24004,-0.39796 -0.10219,0.0128 -0.27829,0.22879 -0.39186,0.47884 -0.11362,0.25004 -0.006,0.42893 0.23943,0.39753 z"
       id="path95" /><path
       style="fill:#ffffff;fill-opacity:1;stroke-width:0.26453"
       d="m 268.05267,145.62129 c 0.81096,-0.10382 1.45012,-0.3783 1.42047,-0.60999 -0.0298,-0.23174 -0.71743,-0.33686 -1.5284,-0.23304 -0.81097,0.10371 -1.45008,0.37881 -1.42041,0.6105 0.0295,0.23173 0.71735,0.33633 1.52834,0.23253 z"
       id="path94" /><path
       style="fill:#ffffff;fill-opacity:1;stroke-width:0.26453"
       d="m 242.66927,150.46754 c 0.27689,0.004 0.49502,-0.24689 0.42931,-0.76024 -0.0663,-0.51748 -0.38467,-0.84249 -0.77546,-0.79246 -0.39232,0.0501 -0.57028,0.36405 -0.43645,0.76946 0.17015,0.51532 0.50573,0.77793 0.7826,0.78324 z"
       id="path93" /><path
       style="fill:#ffffff;fill-opacity:1;stroke-width:0.26453"
       d="m 245.7152,150.07966 c 0.92208,-0.15549 1.66134,-0.40081 1.64291,-0.54474 -0.10013,-0.78241 -1.52316,-0.89565 -2.77647,-0.22119 -1.17474,0.63222 -0.55516,1.05089 1.13353,0.76591 z"
       id="path92" /><path
       style="fill:#ffffff;fill-opacity:1;stroke-width:0.26453"
       d="m 272.69629,147.16762 c 0.53547,-0.0684 1.60688,-1.22084 1.54982,-1.66674 -0.0569,-0.44538 -0.48259,-0.1879 -1.28407,0.77639 -0.45374,0.54592 -0.56812,0.92905 -0.26578,0.89033 z"
       id="path91" /><path
       style="fill:#ffffff;fill-opacity:1;stroke-width:0.26453"
       d="m 282.92868,147.41003 c 0.0719,-0.0434 0.10869,-0.13146 0.0931,-0.25412 -0.0314,-0.24539 -0.24667,-0.4221 -0.47838,-0.39245 -0.2317,0.0298 -0.41059,0.13718 -0.3975,0.23945 0.0128,0.10219 0.22835,0.2789 0.47839,0.39244 0.12494,0.0566 0.23245,0.0582 0.30451,0.0143 z"
       id="path90" /><path
       style="fill:#ffffff;fill-opacity:1;stroke-width:0.26453"
       d="m 240.01004,153.05024 c 0.67202,-0.0524 1.42428,-0.22505 1.91952,-0.49163 0.98203,-0.52849 0.6419,-1.23957 -0.39045,-0.81622 -0.50345,0.20648 -1.44768,0.44621 -2.09814,0.53268 -0.68015,0.0901 -1.04906,0.32196 -0.86831,0.54504 0.17371,0.21442 0.76537,0.28239 1.43735,0.23011 z"
       id="path89" /><path
       style="fill:#ffffff;fill-opacity:1;stroke-width:0.26453"
       d="m 247.63222,152.51053 c 0.52184,-0.0629 0.92411,-0.30469 0.89445,-0.5364 -0.0677,-0.52784 -0.5146,-0.47064 -1.26378,0.16177 -0.46873,0.39563 -0.39786,0.46753 0.36933,0.37463 z"
       id="path88" /><path
       style="fill:#ffffff;fill-opacity:1;stroke-width:0.26453"
       d="m 220.75087,155.95755 c 0.24539,-0.0314 0.4221,-0.2467 0.39243,-0.47839 -0.0298,-0.23172 -0.13766,-0.41053 -0.23994,-0.39746 -0.10219,0.0128 -0.2784,0.22831 -0.39195,0.47834 -0.11363,0.25003 -0.006,0.42893 0.23946,0.39751 z"
       id="path87" /><path
       style="fill:#ffffff;fill-opacity:1;stroke-width:0.26453"
       d="m 229.99446,154.77432 c 0.23174,-0.0298 0.51413,-0.25848 0.62769,-0.50851 0.11363,-0.25005 0.0169,-0.43033 -0.21487,-0.40066 -0.23167,0.0297 -0.51415,0.25847 -0.62769,0.5085 -0.11362,0.25002 -0.0169,0.43033 0.21488,0.40067 z"
       id="path86" /><path
       style="fill:#ffffff;fill-opacity:1;stroke-width:0.26453"
       d="m 287.3394,147.4338 c 0.2317,-0.0296 0.39698,-0.24349 0.36732,-0.47519 -0.0297,-0.23168 -0.24349,-0.39698 -0.47517,-0.36731 -0.23171,0.0298 -0.397,0.24346 -0.36734,0.47517 0.0296,0.23167 0.24346,0.39699 0.47519,0.36733 z"
       id="path85" /><path
       style="fill:#ffffff;fill-opacity:1;stroke-width:0.26453"
       d="m 276.3122,150.12984 c 0.10219,-0.0128 0.27838,-0.22828 0.39193,-0.47833 0.11362,-0.25003 0.006,-0.42892 -0.23944,-0.39753 -0.24538,0.0314 -0.42211,0.2467 -0.39245,0.47843 0.0298,0.23172 0.13782,0.4105 0.23996,0.39743 z"
       id="path84" /><path
       style="fill:#ffffff;fill-opacity:1;stroke-width:0.26453"
       d="m 208.51382,159.23662 c 0.811,-0.10371 1.57379,-0.40727 1.69509,-0.67431 0.12126,-0.2671 0.52909,-0.41004 0.90623,-0.31811 0.73978,0.18031 3.41056,-0.94208 3.35077,-1.40817 -0.02,-0.1558 -1.27701,-0.15086 -2.79359,0.0112 -2.18485,0.23352 -2.65145,0.39414 -2.24553,0.7729 0.59815,0.5581 -0.31171,1.23249 -1.32826,0.98468 -0.34005,-0.0829 -0.71716,0.068 -0.83842,0.33499 -0.14036,0.30908 0.31525,0.41697 1.25372,0.29681 z"
       id="path83" /><path
       style="fill:#ffffff;fill-opacity:1;stroke-width:0.26453"
       d="m 292.37589,149.78675 c 0.21799,-0.028 0.3718,-0.24077 0.34214,-0.47248 -0.0298,-0.23173 -0.34916,-0.38346 -0.71039,-0.33723 -0.36129,0.0463 -0.51564,0.25865 -0.34275,0.47204 0.17283,0.21338 0.49294,0.36558 0.711,0.33767 z"
       id="path82" /><path
       style="fill:#ffffff;fill-opacity:1;stroke-width:0.26453"
       d="m 297.14688,150.46051 c 0.2317,-0.0298 0.39699,-0.24346 0.36733,-0.47518 -0.0295,-0.23168 -0.24349,-0.397 -0.47516,-0.36734 -0.23174,0.0298 -0.39701,0.24349 -0.36734,0.47519 0.0296,0.2317 0.24346,0.39698 0.47517,0.36733 z"
       id="path81" /><path
       style="fill:#ffffff;fill-opacity:1;stroke-width:0.26453"
       d="m 299.62816,150.97994 c 0.33221,-0.0111 0.56805,-0.11155 0.54488,-0.29268 -0.0169,-0.13114 -0.27652,-0.58434 -0.57738,-1.00691 -0.07,-0.0983 -0.0979,-0.0765 -0.15421,-0.14737 a 111.26457,111.26457 0 0 0 -0.50655,-0.28676 c -0.13034,0.0525 -0.25619,0.1445 -0.47946,0.43328 -0.5029,0.65056 -0.49518,0.81284 0.0501,1.06763 0.36187,0.16906 0.79039,0.24481 1.12262,0.23289 z"
       id="path80" /><path
       style="fill:#ffffff;fill-opacity:1;stroke-width:0.26453"
       d="m 193.17725,166.33824 c 0.10219,-0.0128 0.27838,-0.22829 0.39193,-0.47832 0.11362,-0.25004 0.006,-0.42891 -0.23945,-0.39752 -0.24536,0.0314 -0.4221,0.24669 -0.39243,0.4784 0.0296,0.2317 0.13766,0.41053 0.23995,0.39744 z"
       id="path79" /><path
       style="fill:#ffffff;fill-opacity:1;stroke-width:0.26453"
       d="m 303.58004,153.49046 c 0.23171,-0.0296 0.27986,-0.22847 0.10696,-0.44184 -0.17282,-0.21337 -0.11966,-0.4129 0.11825,-0.4433 0.19975,-0.0257 0.22909,-0.25561 0.13813,-0.52328 a 111.26457,111.26457 0 0 0 -0.53857,-0.30504 c -0.0816,0.0906 -0.15022,0.13591 -0.275,0.36231 -0.24715,0.4481 -0.34157,0.94791 -0.20994,1.11031 0.13162,0.16238 0.4289,0.27065 0.66059,0.24098 z"
       id="path78" /><path
       style="fill:#ffffff;fill-opacity:1;stroke-width:0.26453"
       d="m 312.50036,158.34339 c 0.34758,-0.0446 0.60764,-0.27044 0.57797,-0.50214 -0.0298,-0.23174 -0.33824,-0.38487 -0.68581,-0.34038 -0.34757,0.0446 -0.60762,0.27044 -0.57797,0.50213 0.0298,0.23175 0.33828,0.38487 0.68581,0.34039 z"
       id="path77" /><path
       style="fill:#ffffff;fill-opacity:1;stroke-width:0.26453"
       d="m 141.31011,271.37697 c 0.48109,0.0948 0.45807,-0.48455 -0.12222,-3.07006 -0.55457,-2.47136 -0.59253,-3.17552 -0.16822,-3.13708 0.52129,0.0473 0.46,-1.95467 -0.27355,-8.94072 -0.10349,-0.98574 -0.0566,-1.73316 0.1036,-1.66079 0.16034,0.0724 0.26062,-0.42994 0.2227,-1.11665 -0.0379,-0.68666 0.1943,-1.58998 0.51663,-2.00689 0.32229,-0.41692 0.46016,-0.99186 0.30629,-1.27784 -0.15389,-0.28594 -0.0356,-0.78168 0.26273,-1.10143 0.60002,-0.64309 0.56405,-2.19162 -0.049,-2.11315 -0.21396,0.0275 -0.1641,-0.59479 0.11012,-1.38192 0.35882,-1.02926 0.35464,-1.45947 -0.0143,-1.53215 -0.67036,-0.13193 -0.44809,-2.04886 0.41829,-3.60904 0.36313,-0.65398 0.60106,-1.78548 0.52869,-2.51476 -0.0722,-0.72928 0.0278,-1.25361 0.22276,-1.16506 0.19496,0.0887 0.44873,-0.0468 0.56414,-0.3009 0.11538,-0.2541 -0.02,-0.4329 -0.30133,-0.39687 -0.33335,0.0427 -0.30324,-0.2337 0.0869,-0.79401 0.32925,-0.47282 0.57115,-1.2265 0.53721,-1.67464 -0.0474,-0.62737 0.0352,-0.5854 0.35936,0.18272 0.40218,0.95303 0.46067,0.90425 1.31494,-1.1007 0.49177,-1.15419 0.86069,-2.35865 0.81996,-2.67655 -0.0407,-0.31787 0.12461,-0.83449 0.36716,-1.14813 0.3297,-0.4265 0.31641,-0.55461 -0.0519,-0.50746 -0.27079,0.0346 -0.41933,-0.23531 -0.33044,-0.59994 0.22374,-0.91767 1.3108,-0.97598 1.44432,-0.0776 0.15916,1.07005 1.07334,-1.25942 0.94582,-2.40979 -0.14562,-1.31516 1.18875,-2.72938 2.05618,-2.179 0.82939,0.52628 2.34085,-0.38632 2.21879,-1.33984 -0.10057,-0.78541 -0.41767,-0.74095 -1.11179,0.15692 -0.68913,0.89143 -1.35512,1.0084 -1.15893,0.20357 0.0812,-0.33331 -0.20083,-0.87512 -0.62659,-1.20426 -0.71532,-0.55298 -0.71641,-0.60939 -0.0128,-0.74628 0.41853,-0.0815 0.9872,-0.14912 1.26368,-0.15024 0.87532,-0.004 0.96028,-0.91958 0.14371,-1.55082 -0.66492,-0.51404 -0.83261,-0.50846 -1.08668,0.0353 -0.22845,0.48907 -0.33129,0.41665 -0.42849,-0.30352 -0.13144,-0.97153 0.0683,-1.09804 2.07328,-1.31289 1.1918,-0.12778 1.50503,-0.72434 0.51636,-0.98336 -0.35153,-0.0921 -0.30355,-0.18917 0.1305,-0.2662 0.37611,-0.0667 0.73605,-0.52767 0.8002,-1.02438 0.0641,-0.49669 0.48389,-1.05158 0.93295,-1.23253 0.44902,-0.18102 0.89008,-0.62961 0.97971,-0.99737 0.10998,-0.45065 -0.0216,-0.56944 -0.40339,-0.36402 -0.96056,0.51697 -1.10702,-0.023 -0.46319,-1.7096 0.45781,-1.19919 0.47753,-1.68092 0.0756,-1.86346 -0.39687,-0.18025 -0.36693,-0.49766 0.11188,-1.18524 0.35971,-0.51659 0.51489,-1.11071 0.34546,-1.32024 -0.16982,-0.2096 -0.0593,-0.70337 0.24501,-1.09708 0.30433,-0.39369 0.41624,-0.97001 0.2492,-1.28041 -0.17368,-0.32286 0.32948,-1.40886 1.17531,-2.53763 0.8133,-1.08536 1.44121,-2.26689 1.39527,-2.62569 -0.11792,-0.92184 0.82885,-3.37914 1.66564,-4.3224 0.38828,-0.43763 1.04954,-0.75166 1.46918,-0.69748 0.5301,0.0684 1.18721,-0.6331 2.15293,-2.29814 1.87003,-3.22441 4.11025,-6.21219 4.45669,-5.94439 0.15516,0.12 0.49436,-0.01 0.75388,-0.28763 0.32738,-0.35089 0.57419,-0.37948 0.80641,-0.0929 0.1841,0.22721 0.54065,0.24372 0.79226,0.0366 0.25159,-0.20703 1.09894,-0.50221 1.88283,-0.65615 0.78392,-0.1539 1.53454,-0.5199 1.66789,-0.81354 0.13336,-0.29369 0.46388,-0.43327 0.7348,-0.31027 0.59756,0.27134 2.54509,-1.30691 2.17559,-1.763 -0.3179,-0.39241 3.12593,-5.08752 3.79444,-5.17309 0.65279,-0.0836 0.44063,-1.33353 -0.21829,-1.28621 -0.29173,0.0208 0.32933,-0.35222 1.3805,-0.82887 1.05113,-0.47663 2.33841,-1.37725 2.86018,-2.00167 0.52174,-0.62442 1.48231,-1.44101 2.1346,-1.8145 0.65225,-0.37348 1.1514,-0.94613 1.10957,-1.27285 -0.0419,-0.32674 0.24023,-0.759 0.62658,-0.96051 0.38632,-0.20152 0.81539,-0.58768 0.9538,-0.85808 0.16944,-0.33109 0.27589,-0.32097 0.32538,0.0312 0.12222,0.86828 1.84643,0.0879 2.08463,-0.94344 0.12127,-0.52488 0.084,-0.94006 -0.0827,-0.92231 -0.85552,0.091 1.01145,-0.96601 1.90919,-1.0809 0.85918,-0.10998 0.94738,-0.0372 0.47861,0.39395 -0.44845,0.41268 -0.32348,0.45445 0.56989,0.19162 0.62949,-0.18539 1.26702,-0.18546 1.4167,-6.2e-4 0.37721,0.46561 3.06114,0.0677 4.97533,-0.73736 0.90201,-0.37939 2.20924,-1.47435 3.0121,-2.52377 0.78012,-1.0196 1.60014,-1.87736 1.82288,-1.90589 0.22277,-0.0285 0.35911,-0.4132 0.30257,-0.85492 -0.0782,-0.61013 0.11792,-0.77469 0.81716,-0.68434 0.76759,0.0992 0.85755,-0.0173 0.53997,-0.70147 -0.32163,-0.69271 -0.1531,-0.89361 1.08348,-1.29348 0.80533,-0.26048 2.08898,-1.02515 2.85249,-1.69961 1.5827,-1.39808 3.8734,-1.94912 3.60998,-0.8684 -0.2625,1.07664 0.59266,0.65663 1.03698,-0.50931 0.29728,-0.77994 0.6587,-1.03853 1.3309,-0.95169 0.59166,0.0765 0.72741,0.21334 0.37755,0.38191 -0.89932,0.43338 -3.53504,3.95873 -3.1705,4.24055 0.1858,0.14371 0.99098,-0.23548 1.78975,-0.84218 1.0441,-0.79298 1.66774,-1.01596 2.21887,-0.79397 0.8983,0.36184 3.75074,-0.68533 4.28297,-1.57229 0.39953,-0.66579 0.27808,-2.06649 -0.17426,-2.00858 -0.16829,0.0214 -0.3816,0.3505 -0.47423,0.73055 -0.22151,0.90857 -1.05428,0.50846 -1.1927,-0.5729 -0.0813,-0.63471 0.13352,-0.84731 0.85472,-0.84647 0.52999,6e-4 1.1511,-0.15246 1.38016,-0.33916 0.27809,-0.22705 0.46074,0.28728 0.55032,1.54845 0.0738,1.03861 0.31015,1.86619 0.52534,1.83858 0.21481,-0.0274 0.36626,-0.23957 0.33661,-0.47124 -0.0298,-0.23174 0.14704,-0.44699 0.39243,-0.4784 0.2454,-0.0314 0.35299,0.14753 0.23945,0.39749 -0.11363,0.25003 -0.004,0.42888 0.23996,0.39746 0.24538,-0.0314 0.41991,-0.25974 0.38825,-0.50702 -0.0341,-0.26501 0.32064,-0.38103 0.86289,-0.28239 1.19296,0.21709 4.57285,-0.74 4.50426,-1.27569 -0.0291,-0.22692 -0.80633,-0.27071 -1.72716,-0.0972 -2.38451,0.44934 -3.16866,-0.31812 -0.98194,-0.96086 1.24981,-0.36735 1.88801,-0.35158 2.41983,0.0595 0.39727,0.30711 0.90937,0.53471 1.13821,0.50541 0.22883,-0.0293 0.32321,0.15135 0.20974,0.4013 -0.27377,0.60285 1.16032,0.38906 1.89066,-0.28163 0.42949,-0.39445 0.43617,-0.56422 0.0248,-0.67301 -0.38447,-0.10198 -0.45796,-0.38876 -0.24327,-0.95228 0.22424,-0.58845 0.84151,-0.88613 2.28233,-1.10003 1.0862,-0.16121 2.14583,-0.51372 2.35455,-0.78373 0.20875,-0.27001 1.02795,-0.57431 1.82096,-0.67582 1.23386,-0.15804 1.37781,-0.0839 0.99823,0.51446 -0.38663,0.60934 -0.0872,0.6534 2.33324,0.34356 2.2951,-0.29379 2.74866,-0.24048 2.61507,0.3075 -0.23884,0.97985 6.78243,0.0718 7.43841,-0.96225 0.6773,-1.06744 0.0318,-1.25132 -1.43799,-0.40973 -1.3994,0.8013 -3.09907,0.96934 -4.01305,0.39701 -0.30882,-0.19337 -0.74339,-0.20437 -0.96569,-0.0244 -0.22229,0.18007 -1.0125,0.0656 -1.75613,-0.25442 l -1.35219,-0.58165 0.7879,-1.08792 c 0.57932,-0.7998 0.89157,-0.96078 1.17813,-0.6071 0.23996,0.29623 1.53028,0.36666 3.35547,0.18303 1.63086,-0.164 3.22192,-0.18211 3.53586,-0.0396 0.75973,0.34501 4.78443,-0.0185 5.00096,-0.4516 0.0937,-0.18755 0.86663,-0.54402 1.71799,-0.79234 1.18397,-0.34527 1.56628,-0.30915 1.62556,0.15389 0.0482,0.37637 -0.3604,0.66635 -1.07953,0.76688 -0.6363,0.0884 -1.48898,0.48708 -1.89523,0.88484 -0.64406,0.63065 -0.64712,0.71154 -0.026,0.63202 0.39186,-0.0501 0.68769,-0.28396 0.65746,-0.52013 -0.0317,-0.2475 0.40491,-0.37481 1.0308,-0.30063 0.59734,0.0711 1.39994,-0.0573 1.78339,-0.28554 0.71737,-0.42724 1.12112,-0.58846 2.06163,-0.82178 0.2988,-0.074 0.40603,-0.30413 0.23824,-0.51128 -0.33943,-0.41897 1.6339,-1.33528 2.09985,-0.9751 0.16206,0.12526 -0.0211,0.26838 -0.40727,0.3178 -0.3862,0.0494 -0.68089,0.25563 -0.65494,0.45833 0.0533,0.41727 2.49441,0.77582 3.60028,0.52882 0.40068,-0.0894 0.75217,0.0247 0.78149,0.25364 0.0292,0.22896 0.90626,0.30696 1.94893,0.17347 1.04268,-0.13352 1.87192,-0.43223 1.84226,-0.66397 -0.0969,-0.75751 0.57653,-0.52324 1.1257,0.39136 0.58626,0.97642 2.93966,1.2642 2.82201,0.34506 -0.0737,-0.57544 0.24521,-0.44459 0.47826,0.1961 0.25085,0.68969 2.71516,1.16176 3.81524,0.73099 0.69241,-0.27106 0.96496,-0.24366 0.81686,0.0824 -0.12222,0.26924 -0.0284,0.57728 0.20853,0.68482 0.23683,0.10761 0.52503,-0.0128 0.64044,-0.26637 0.11538,-0.2541 0.61403,-0.51352 1.10805,-0.57677 0.87867,-0.11251 0.88196,-0.0995 0.15771,0.58712 -1.03013,0.97651 -0.51789,1.18978 1.28255,0.53432 0.87881,-0.31996 1.54285,-0.39471 1.5707,-0.17706 0.0264,0.20728 0.24605,0.35133 0.48742,0.32045 0.24141,-0.0309 0.89564,0.27192 1.45394,0.67279 0.60353,0.43336 1.31178,0.59095 1.74682,0.38897 0.44133,-0.20492 0.85745,-0.10566 1.0487,0.24962 0.17431,0.32396 0.72738,0.64199 1.2291,0.70682 0.77548,0.10014 0.84242,0.2279 0.44656,0.85176 -0.25609,0.40368 -0.35895,0.81645 -0.2284,0.91734 0.43035,0.33268 1.55527,-0.51312 1.47864,-1.11176 -0.0414,-0.32275 0.11442,-0.61102 0.34615,-0.64069 0.23174,-0.0298 0.39699,-0.24351 0.36734,-0.47518 -2.4e-4,-0.003 -0.007,-0.004 -0.007,-0.008 a 111.26457,111.26457 0 0 0 -0.90414,-0.35304 c -0.1662,-0.0143 -0.28146,-0.0596 -0.3542,-0.13863 a 111.26457,111.26457 0 0 0 -59.67477,-9.009 111.26457,111.26457 0 0 0 -96.23674,124.49132 111.26457,111.26457 0 0 0 1.15465,7.01007 c 0.27647,0.79497 0.57194,1.32623 0.92989,1.39673 z"
       id="path55" /></g></svg>
